<svg xmlns="http://www.w3.org/2000/svg" xmlns:xlink="http://www.w3.org/1999/xlink" width="1280" height="720" viewBox="0 0 1280 720">
  <defs>
    <clipPath id="clip-path">
      <rect id="Rectangle_353" data-name="Rectangle 353" width="1280" height="720" transform="translate(13850 -1618)" fill="red"/>
    </clipPath>
  </defs>
  <g id="Mask_Group_5" data-name="Mask Group 5" transform="translate(-13850 1618)" clip-path="url(#clip-path)">
    <g id="Group_350" data-name="Group 350" transform="translate(14105.001 -1410.281)">
      <g id="Group_349" data-name="Group 349" transform="translate(0 0)">
        <g id="Group_348" data-name="Group 348">
          <path id="Path_1355" data-name="Path 1355" d="M429.841,100.16h-114.9V3.992H428.229V24.186H340.367v16.67h83.682V61.373H340.363v17.95h89.478ZM587.552,79.642H498.074V61.373H581.76V40.855H498.074V24.186H585.62V3.672H472.648V99.84h114.9v-20.2ZM766.825,32.2a44.144,44.144,0,0,0-11.589-15.066A51.791,51.791,0,0,0,736.571,7.52a77.494,77.494,0,0,0-24.142-3.848H631.972V99.84h23.494V25.794H714.69a37.032,37.032,0,0,1,11.909,1.92,29.88,29.88,0,0,1,9.653,5.767,24.815,24.815,0,0,1,6.116,8.979,25.612,25.612,0,0,1,1.932,9.615v5.451c-2.576,20.193-18.669,33.66-55.684,45.518a186.22,186.22,0,0,1-20.273,5.767L386.074,177.089,103.487,108.81l-20.6-5.447C58.1,95.672,28.169,81.566,28.169,53.358a24.876,24.876,0,0,1,2.9-11.863,29.607,29.607,0,0,1,7.4-9.295,40.156,40.156,0,0,1,11.589-6.091,54.328,54.328,0,0,1,16.093-2.244,60.106,60.106,0,0,1,22.53,4.487,103.612,103.612,0,0,1,28.962,19.238V17.77A103.206,103.206,0,0,0,101.55,7.836,81.377,81.377,0,0,0,66.788.78,87.127,87.127,0,0,0,39.434,4.948,68.207,68.207,0,0,0,17.544,16.49,43.35,43.35,0,0,0,.811,51.754,55.757,55.757,0,0,0,13.04,88.941c12.553,14.746,36.691,29.812,88.51,42.31l237.209,57.061L59.387,255.627H153.37l232.376-56.1,232.7,56.1h93.659L432.733,188.316l237.529-57.061c51.5-12.822,75.957-27.568,88.51-42.31a55.5,55.5,0,0,0,11.913-37.187A44.1,44.1,0,0,0,766.5,32.525l.324-.32ZM182.98,100.48H157.23V4.312h78.214a40.128,40.128,0,0,1,15.125,1.924,34.519,34.519,0,0,1,11.589,6.411,31.191,31.191,0,0,1,7.08,9.935,35.083,35.083,0,0,1,2.572,12.827c0,14.746-6.436,25-19.309,29.488l30.574,35.263H251.857l-28.646-32.7H182.98v33.016Zm0-53.533h50.207a14.691,14.691,0,0,0,10.3-3.2,11.432,11.432,0,0,0,3.86-8.659,9.539,9.539,0,0,0-3.86-7.691,17.062,17.062,0,0,0-10.3-3.208H182.656Zm0,53.533H157.23V4.312h78.214a40.128,40.128,0,0,1,15.125,1.924,34.519,34.519,0,0,1,11.589,6.411,31.191,31.191,0,0,1,7.08,9.935,35.083,35.083,0,0,1,2.572,12.827c0,14.746-6.436,25-19.309,29.488l30.574,35.263H251.857l-28.646-32.7H182.98v33.016Zm0-53.533h50.207a14.691,14.691,0,0,0,10.3-3.2,11.432,11.432,0,0,0,3.86-8.659,9.539,9.539,0,0,0-3.86-7.691,17.062,17.062,0,0,0-10.3-3.208H182.656ZM289.511,301.469c0,1.6-.32,2.244-1.928,2.244v.96H301.1v-.96c-1.608,0-1.932-.64-1.932-2.244V260.439c0-1.6.324-2.568,1.932-2.568v-.96H288.227v.96a1.519,1.519,0,0,1,1.608,1.6c0,1.924-3.22,3.208-4.5,3.208s-1.612,0-1.612-1.284h-.968v10.579h.968c0-1.6.968-2.568,5.792-2.884v32.372Zm40.555,0a3.089,3.089,0,0,1-2.9,2.244v.96h14.8v-.96c-.644,0-1.288,0-1.288-.64a4.554,4.554,0,0,1,.644-1.924l22.53-36.867v-8.655h-.968c0,.964-.96,1.6-2.568,1.6H322.018c-1.284,0-2.248-.64-2.248-1.6H318.8v10.894h.968c0-.96.964-1.28,2.252-1.28H352.6Zm92.05-41.031-.968-.324c0,.324-.64.644-.964.644a33,33,0,0,1-4.824-2.244,33.238,33.238,0,0,0-11.265-1.924c-14.809,0-24.786,9.935-24.786,25s8.049,23.721,23.5,23.721c10.621,0,21.885-4.492,21.885-16.67,0-10.579-9.657-16.03-19.953-16.03a25.094,25.094,0,0,0-16.093,6.091c.64-9.615,6.756-14.426,16.089-14.426,7.725,0,11.589,3.848,11.589,5.131v.96l.968.32,4.824-10.254Zm-6.756,28.848c0,5.767-4.828,8.335-12.553,8.335s-12.553-2.568-12.553-8.335c0-4.167,4.5-8.655,12.553-8.655S415.36,283.2,415.36,289.287Zm49.563-32.7c-14.481,0-24.138,10.259-24.138,24.361s9.657,24.365,24.138,24.365,24.138-10.259,24.138-24.365-9.653-24.681-24.138-24.361Zm0,7.691c9.013,0,14.805,6.735,14.805,16.67s-5.792,16.67-14.805,16.67-14.8-6.735-14.8-16.67,5.792-16.67,14.8-16.67Z" transform="translate(-0.751 -0.754)"/>
        </g>
      </g>
    </g>
  </g>
</svg>
